<svg width="784" height="157" viewBox="0 0 784 157" fill="none" xmlns="http://www.w3.org/2000/svg">
<path d="M8.09091 124V30.9091H69.7273V47.1364H27.7727V69.3182H65.6364V85.5455H27.7727V124H8.09091ZM82.9659 124V30.9091H119.693C126.723 30.9091 132.723 32.1667 137.693 34.6818C142.693 37.1667 146.496 40.697 149.102 45.2727C151.739 49.8182 153.057 55.1667 153.057 61.3182C153.057 67.5 151.723 72.8182 149.057 77.2727C146.39 81.697 142.527 85.0909 137.466 87.4545C132.436 89.8182 126.345 91 119.193 91H94.6023V75.1818H116.011C119.769 75.1818 122.89 74.6667 125.375 73.6364C127.86 72.6061 129.708 71.0606 130.92 69C132.163 66.9394 132.784 64.3788 132.784 61.3182C132.784 58.2273 132.163 55.6212 130.92 53.5C129.708 51.3788 127.845 49.7727 125.33 48.6818C122.845 47.5606 119.708 47 115.92 47H102.648V124H82.9659ZM133.239 81.6364L156.375 124H134.648L112.011 81.6364H133.239ZM183.011 124H161.92L194.057 30.9091H219.42L251.511 124H230.42L207.102 52.1818H206.375L183.011 124ZM181.693 87.4091H231.511V102.773H181.693V87.4091ZM340.58 30.9091V124H323.58L283.08 65.4091H282.398V124H262.716V30.9091H279.989L320.17 89.4545H320.989V30.9091H340.58ZM509.316 77.4545C509.316 87.6061 507.392 96.2424 503.544 103.364C499.725 110.485 494.513 115.924 487.907 119.682C481.332 123.409 473.938 125.273 465.725 125.273C457.453 125.273 450.028 123.394 443.453 119.636C436.877 115.879 431.68 110.439 427.862 103.318C424.044 96.197 422.135 87.5758 422.135 77.4545C422.135 67.303 424.044 58.6667 427.862 51.5455C431.68 44.4242 436.877 39 443.453 35.2727C450.028 31.5151 457.453 29.6364 465.725 29.6364C473.938 29.6364 481.332 31.5151 487.907 35.2727C494.513 39 499.725 44.4242 503.544 51.5455C507.392 58.6667 509.316 67.303 509.316 77.4545ZM489.362 77.4545C489.362 70.8788 488.377 65.3333 486.407 60.8182C484.468 56.303 481.725 52.8788 478.18 50.5455C474.635 48.2121 470.483 47.0455 465.725 47.0455C460.968 47.0455 456.816 48.2121 453.271 50.5455C449.725 52.8788 446.968 56.303 444.998 60.8182C443.059 65.3333 442.089 70.8788 442.089 77.4545C442.089 84.0303 443.059 89.5758 444.998 94.0909C446.968 98.6061 449.725 102.03 453.271 104.364C456.816 106.697 460.968 107.864 465.725 107.864C470.483 107.864 474.635 106.697 478.18 104.364C481.725 102.03 484.468 98.6061 486.407 94.0909C488.377 89.5758 489.362 84.0303 489.362 77.4545ZM556.896 124H523.896V30.9091H557.169C566.532 30.9091 574.593 32.7727 581.35 36.5C588.108 40.197 593.305 45.5151 596.941 52.4545C600.608 59.3939 602.441 67.697 602.441 77.3636C602.441 87.0606 600.608 95.3939 596.941 102.364C593.305 109.333 588.078 114.682 581.26 118.409C574.472 122.136 566.35 124 556.896 124ZM543.578 107.136H556.078C561.896 107.136 566.79 106.106 570.76 104.045C574.76 101.955 577.76 98.7273 579.76 94.3636C581.79 89.9697 582.805 84.303 582.805 77.3636C582.805 70.4848 581.79 64.8636 579.76 60.5C577.76 56.1364 574.775 52.9242 570.805 50.8636C566.835 48.803 561.941 47.7727 556.123 47.7727H543.578V107.136ZM617.021 124V30.9091H679.748V47.1364H636.703V69.3182H676.521V85.5455H636.703V107.773H679.93V124H617.021ZM712.214 30.9091L734.714 101.636H735.578L758.123 30.9091H779.941L747.85 124H722.487L690.35 30.9091H712.214Z" fill="#f0f8ff"/>
<path d="M411 33H387L354 74.5L387 125.5H411L376.5 74.5L411 33Z" fill="#F14668"/>
</svg>
